<?xml version="1.0" standalone="no"?>
<!DOCTYPE svg PUBLIC "-//W3C//DTD SVG 20010904//EN"
 "http://www.w3.org/TR/2001/REC-SVG-20010904/DTD/svg10.dtd">
<svg version="1.0" xmlns="http://www.w3.org/2000/svg"
 width="700.000000pt" height="700.000000pt" viewBox="0 0 700.000000 700.000000"
 preserveAspectRatio="xMidYMid meet">
<metadata>
Created by potrace 1.11, written by Peter Selinger 2001-2013
</metadata>
<g transform="translate(0.000000,700.000000) scale(0.100000,-0.100000)"
fill="#000000" stroke="none">
<path d="M0 3500 l0 -3500 3500 0 3500 0 0 3500 0 3500 -3500 0 -3500 0 0
-3500z m5120 2578 c60 -15 136 -53 185 -93 22 -18 186 -179 364 -358 333 -334
369 -378 405 -487 24 -72 25 -196 2 -274 -33 -113 -66 -155 -342 -431 -282
-283 -302 -297 -369 -275 -49 16 -1189 1156 -1205 1205 -22 66 -7 85 272 365
260 260 315 305 413 339 81 28 182 32 275 9z m-1172 -987 c44 -33 1148 -1144
1162 -1169 16 -33 5 -100 -22 -131 -13 -13 -618 -620 -1345 -1347 l-1322
-1323 -118 -21 c-65 -12 -127 -23 -138 -25 -11 -1 -72 -12 -135 -23 -63 -11
-135 -24 -160 -27 -25 -3 -61 -10 -80 -15 -19 -5 -53 -11 -75 -14 -22 -3 -78
-12 -125 -21 -47 -8 -100 -18 -119 -21 -18 -3 -43 -8 -55 -10 -11 -2 -37 -7
-56 -10 -19 -3 -65 -11 -101 -18 -86 -16 -177 -12 -218 8 -87 46 -146 150
-136 244 4 34 55 337 81 482 16 89 44 251 49 280 3 19 10 60 15 90 6 30 12 66
15 80 10 58 25 147 29 167 3 11 8 43 12 70 5 26 9 51 10 56 1 4 2 12 3 17 2
16 2680 2690 2704 2700 32 13 94 4 125 -19z"/>
<path d="M3749 4427 c-47 -33 -1588 -1575 -1611 -1612 -36 -59 -14 -147 47
-185 38 -24 104 -26 143 -5 48 26 1610 1597 1625 1635 52 125 -93 243 -204
167z"/>
<path d="M1434 2276 c-2 -6 -15 -78 -29 -161 -15 -82 -28 -161 -31 -175 -2
-14 -15 -88 -28 -165 l-24 -140 157 -155 156 -156 65 12 c36 7 81 15 100 18
35 5 122 21 170 30 22 4 54 10 174 30 83 14 122 20 129 18 9 -2 9 -3 10 194 0
88 -2 165 -5 170 -4 5 -109 9 -242 8 l-236 -1 0 242 0 241 -181 0 c-118 0
-182 -4 -185 -10z"/>
</g>
</svg>
